<svg xmlns="http://www.w3.org/2000/svg" id="Layer_1" x="0" y="0" version="1.1" viewBox="0 0 128 128" xml:space="preserve"><path fill="#f9aaf9" d="M35,124c3.9,0,7-3.1,7-7c0,3.9,3.1,7,7,7s7-3.1,7-7c0,3.9,3.1,7,7,7s7-3.1,7-7c0,3.9,3.1,7,7,7s7-3.1,7-7v-14	c22.8-4.6,40-24.8,40-49v0c0-27.6-22.4-50-50-50H54C26.4,4,4,26.4,4,54v0c0,18.1,9.6,33.9,24,42.7V117C28,120.9,31.1,124,35,124z"/><path fill="#3532c1" d="M68.5,34.4c4.1,0,7.5,3.4,7.5,7.5c0-4.1,3.4-7.5,7.5-7.5s7.5,3.4,7.5,7.5c0,8.3-10.5,16.9-15,16.9	s-15-8.6-15-16.9C61,37.8,64.4,34.4,68.5,34.4z M21,41.9c0-4.1,3.4-7.5,7.5-7.5s7.5,3.4,7.5,7.5c0-4.1,3.4-7.5,7.5-7.5	s7.5,3.4,7.5,7.5c0,8.3-10.5,16.9-15,16.9S21,50.2,21,41.9z"/><path fill="#3532c1" d="M106.5,71c0.9,1.4,0.6,3.2-0.7,4.2c-5.6,3.9-12,6.2-18.7,6.7V92c0,1.7-1.3,3-3,3s-3-1.3-3-3V79c0-1.7,1.3-3,3-3	c6.6,0,12.9-2,18.3-5.8C103.6,69.3,105.5,69.6,106.5,71z M53,64c0-1.7,1.3-3,3-3s3,1.3,3,3v23c0,1.7-1.3,3-3,3s-3-1.3-3-3V64z"/></svg>