<?xml version="1.0" encoding="utf-8"?>
<svg xmlns="http://www.w3.org/2000/svg" viewBox="0 0 50 50" fill="#000000"><path d="M 43.6875 2 L 38.65625 7.0625 L 36.34375 4.75 C 34 2.410156 30.1875 2.410156 27.84375 4.75 L 23.03125 9.59375 L 21.71875 8.28125 C 21.476563 8.03125 21.121094 7.925781 20.78125 8 C 20.40625 8.066406 20.105469 8.339844 20 8.703125 C 19.894531 9.070313 20.003906 9.460938 20.28125 9.71875 L 25.0625 14.5 L 18.9375 20.65625 L 20.34375 22.0625 L 26.5 15.9375 L 34.0625 23.5 L 27.9375 29.65625 L 29.34375 31.0625 L 35.5 24.9375 L 40.28125 29.71875 C 40.679688 30.117188 41.320313 30.117188 41.71875 29.71875 C 42.117188 29.320313 42.117188 28.679688 41.71875 28.28125 L 40.40625 26.96875 L 45.25 22.15625 C 47.59375 19.8125 47.59375 16.03125 45.25 13.6875 L 45.25 13.65625 L 42.9375 11.34375 L 48 6.3125 Z M 8.90625 19.96875 C 8.863281 19.976563 8.820313 19.988281 8.78125 20 C 8.40625 20.066406 8.105469 20.339844 8 20.703125 C 7.894531 21.070313 8.003906 21.460938 8.28125 21.71875 L 9.59375 23.03125 L 4.75 27.84375 C 2.40625 30.1875 2.40625 34 4.75 36.34375 L 7.0625 38.625 L 2 43.6875 L 6.3125 48 L 11.375 42.9375 L 13.65625 45.25 C 16 47.589844 19.8125 47.589844 22.15625 45.25 L 26.96875 40.40625 L 28.28125 41.71875 C 28.679688 42.117188 29.320313 42.117188 29.71875 41.71875 C 30.117188 41.320313 30.117188 40.679688 29.71875 40.28125 L 9.71875 20.28125 C 9.511719 20.058594 9.210938 19.945313 8.90625 19.96875 Z" fill="#000000"/></svg>
