<?xml version="1.0" encoding="utf-8"?>
<svg xmlns="http://www.w3.org/2000/svg" viewBox="0 0 26 26" fill="#000000"><path d="M 21.125 0 L 4.875 0 C 2.183594 0 0 2.183594 0 4.875 L 0 21.125 C 0 23.816406 2.183594 26 4.875 26 L 21.125 26 C 23.816406 26 26 23.816406 26 21.125 L 26 4.875 C 26 2.183594 23.816406 0 21.125 0 Z M 17.660156 13.855469 L 11.429688 18.804688 C 11.292969 18.875 11.140625 18.910156 10.992188 18.910156 C 10.8125 18.910156 10.636719 18.859375 10.480469 18.765625 C 10.191406 18.59375 10 18.28125 10 17.949219 L 10 8.050781 C 10 7.71875 10.191406 7.40625 10.480469 7.234375 C 10.765625 7.058594 11.128906 7.042969 11.429688 7.195313 L 17.660156 12.144531 C 17.996094 12.441406 18.195313 12.636719 18.195313 13 C 18.195313 13.363281 17.960938 13.574219 17.660156 13.855469 Z" fill="#000000"/></svg>
