<svg xmlns="http://www.w3.org/2000/svg" viewBox="0 0 48 48"><path fill="#ff3d00" d="M34,6c-4.179,0-7.852,2.214-10,5.568C21.852,8.214,18.179,6,14,6C7.373,6,2,11.568,2,18.438 c0,12.376,18.698,18.337,22,26.318c3.302-7.981,22-13.843,22-26.318C46,11.568,40.627,6,34,6"/><path fill="#cfd8dc" d="M37,21.83c0,0.818-0.7,1.534-1.5,1.534S34,22.648,34,21.83c0-0.818,0.7-1.534,1.5-1.534 S37,21.011,37,21.83z"/><path fill="#cfd8dc" d="M15,19.784c0,0.818-0.7,1.534-1.5,1.534S12,20.602,12,19.784c0-0.818,0.7-1.534,1.5-1.534 S15,18.966,15,19.784z"/><path fill="#cfd8dc" d="M14,21.83c0,0.818-0.7,1.534-1.5,1.534S11,22.648,11,21.83c0-0.818,0.7-1.534,1.5-1.534 S14,21.011,14,21.83z"/><polygon fill="#cfd8dc" points="12.645,21.849 13.389,19.95 34.368,28.546 33.624,30.445"/><path fill="#cfd8dc" d="M36,28.989c0,0.818-0.7,1.534-1.5,1.534S33,29.807,33,28.989c0-0.818,0.7-1.534,1.5-1.534 S36,28.17,36,28.989z"/><path fill="#cfd8dc" d="M35,31.034c0,0.818-0.7,1.534-1.5,1.534S32,31.852,32,31.034c0-0.818,0.7-1.534,1.5-1.534 S35,30.216,35,31.034z"/><path fill="#cfd8dc" d="M36,19.784c0,0.818-0.7,1.534-1.5,1.534S33,20.602,33,19.784c0-0.818,0.7-1.534,1.5-1.534 S36,18.966,36,19.784z"/><polygon fill="#cfd8dc" points="13.642,28.553 34.621,19.957 35.365,21.856 14.385,30.452"/><path fill="#cfd8dc" d="M15,28.989c0,0.818-0.7,1.534-1.5,1.534S12,29.807,12,28.989c0-0.818,0.7-1.534,1.5-1.534 S15,28.17,15,28.989z"/><path fill="#cfd8dc" d="M16,31.034c0,0.818-0.7,1.534-1.5,1.534S13,31.852,13,31.034c0-0.818,0.7-1.534,1.5-1.534 S16,30.216,16,31.034z"/><path fill="#fff" d="M31,22.341c0,4.5-3.1,4.091-7,4.091s-7,0.409-7-4.091s3.1-8.182,7-8.182S31,17.841,31,22.341z"/><path fill="#fff" d="M28,27.455c0,1.739-1.3,3.068-3,3.068h-2c-1.7,0-3-1.33-3-3.068v-1.023c0-1.739,1.3-3.068,3-3.068 h2c1.7,0,3,1.33,3,3.068V27.455z"/><path fill="#455a64" d="M25,25.409c0,0.614-0.4,0-1,0s-1,0.614-1,0c0-0.614,0.4-2.045,1-2.045S25,24.795,25,25.409z"/><path fill="#455a64" d="M29,20.295c0,1.125-0.9,3.068-2,3.068s-2-0.92-2-2.045s0.9-2.045,2-2.045S29,19.17,29,20.295z"/><path fill="#455a64" d="M19,20.295c0,1.125,0.9,3.068,2,3.068s2-0.92,2-2.045s-0.9-2.045-2-2.045S19,19.17,19,20.295z"/></svg>