<?xml version="1.0" encoding="utf-8"?>
<svg xmlns="http://www.w3.org/2000/svg" viewBox="0 0 50 50" fill="#000000"><path d="M 2 4 C 1.448 4 1 4.448 1 5 L 1 45 C 1 45.552 1.448 46 2 46 L 48 46 C 48.552 46 49 45.552 49 45 L 49 5 C 49 4.448 48.552 4 48 4 L 2 4 z M 3 6 L 6 6 L 6 9 L 3 9 L 3 6 z M 8 6 L 12 6 L 12 9 L 8 9 L 8 6 z M 14 6 L 18 6 L 18 9 L 14 9 L 14 6 z M 20 6 L 24 6 L 24 9 L 20 9 L 20 6 z M 26 6 L 30 6 L 30 9 L 26 9 L 26 6 z M 32 6 L 36 6 L 36 9 L 32 9 L 32 6 z M 38 6 L 42 6 L 42 9 L 38 9 L 38 6 z M 44 6 L 47 6 L 47 9 L 44 9 L 44 6 z M 21 19 L 31 25 L 21 31 L 21 19 z M 3 41 L 6 41 L 6 44 L 3 44 L 3 41 z M 8 41 L 12 41 L 12 44 L 8 44 L 8 41 z M 14 41 L 18 41 L 18 44 L 14 44 L 14 41 z M 20 41 L 24 41 L 24 44 L 20 44 L 20 41 z M 26 41 L 30 41 L 30 44 L 26 44 L 26 41 z M 32 41 L 36 41 L 36 44 L 32 44 L 32 41 z M 38 41 L 42 41 L 42 44 L 38 44 L 38 41 z M 44 41 L 47 41 L 47 44 L 44 44 L 44 41 z" fill="#000000"/></svg>
